<svg width="400" height="188" viewBox="0 0 400 188" fill="none" xmlns="http://www.w3.org/2000/svg">
<g filter="url(#filter0_dd_182_60901)">
<g clip-path="url(#clip0_182_60901)">
<path d="M20 26C20 20.4772 24.4772 16 30 16H370C375.523 16 380 20.4772 380 26V136H20V26Z" fill="#2A79CD"/>
<g filter="url(#filter1_d_182_60901)">
<path d="M49.544 54.246H46.862V48.612L44.954 49.296C44.774 49.188 44.6 49.038 44.432 48.846C44.276 48.654 44.198 48.39 44.198 48.054C44.198 47.418 44.582 46.974 45.35 46.722L47.492 45.93H48.086C48.53 45.93 48.884 46.062 49.148 46.326C49.412 46.59 49.544 46.944 49.544 47.388V54.246ZM46.862 52.248H49.544V56.982C49.424 57.018 49.256 57.054 49.04 57.09C48.824 57.126 48.59 57.144 48.338 57.144C47.834 57.144 47.462 57.054 47.222 56.874C46.982 56.694 46.862 56.364 46.862 55.884V52.248ZM56.146 47.532C56.146 47.16 56.284 46.848 56.56 46.596C56.836 46.332 57.214 46.134 57.694 46.002C58.174 45.87 58.732 45.804 59.368 45.804C60.268 45.804 61.024 45.948 61.636 46.236C62.26 46.512 62.728 46.902 63.04 47.406C63.364 47.898 63.526 48.462 63.526 49.098C63.526 49.734 63.346 50.358 62.986 50.97C62.626 51.57 62.068 52.188 61.312 52.824L58.81 54.912H63.382C63.442 55.008 63.502 55.152 63.562 55.344C63.622 55.524 63.652 55.722 63.652 55.938C63.652 56.31 63.568 56.58 63.4 56.748C63.232 56.916 63.01 57 62.734 57H56.452C56.224 56.844 56.044 56.64 55.912 56.388C55.792 56.136 55.732 55.854 55.732 55.542C55.732 55.182 55.804 54.882 55.948 54.642C56.104 54.39 56.272 54.18 56.452 54.012L59.116 51.654C59.764 51.09 60.208 50.628 60.448 50.268C60.688 49.908 60.808 49.566 60.808 49.242C60.808 48.846 60.658 48.534 60.358 48.306C60.07 48.066 59.65 47.946 59.098 47.946C58.606 47.946 58.162 48.03 57.766 48.198C57.382 48.354 57.064 48.516 56.812 48.684C56.632 48.564 56.476 48.408 56.344 48.216C56.212 48.024 56.146 47.796 56.146 47.532ZM72.54 45.786C73.86 45.786 74.88 46.068 75.6 46.632C76.32 47.184 76.68 47.94 76.68 48.9C76.68 49.308 76.602 49.674 76.446 49.998C76.29 50.31 76.092 50.574 75.852 50.79C75.612 51.006 75.354 51.174 75.078 51.294C75.414 51.402 75.72 51.57 75.996 51.798C76.284 52.026 76.512 52.32 76.68 52.68C76.86 53.028 76.95 53.46 76.95 53.976C76.95 54.66 76.764 55.254 76.392 55.758C76.02 56.25 75.504 56.628 74.844 56.892C74.196 57.144 73.44 57.27 72.576 57.27C71.796 57.27 71.13 57.192 70.578 57.036C70.038 56.892 69.624 56.688 69.336 56.424C69.048 56.148 68.904 55.848 68.904 55.524C68.904 55.236 68.97 54.984 69.102 54.768C69.246 54.552 69.42 54.39 69.624 54.282C69.888 54.462 70.224 54.648 70.632 54.84C71.052 55.032 71.592 55.128 72.252 55.128C72.9 55.128 73.398 55.002 73.746 54.75C74.094 54.498 74.268 54.162 74.268 53.742C74.268 53.334 74.124 53.016 73.836 52.788C73.548 52.56 73.08 52.446 72.432 52.446H70.794C70.71 52.326 70.638 52.182 70.578 52.014C70.53 51.834 70.506 51.63 70.506 51.402C70.506 51.162 70.53 50.952 70.578 50.772C70.638 50.592 70.71 50.448 70.794 50.34H72.396C72.948 50.34 73.35 50.238 73.602 50.034C73.854 49.83 73.98 49.536 73.98 49.152C73.98 48.78 73.824 48.486 73.512 48.27C73.2 48.042 72.744 47.928 72.144 47.928C71.64 47.928 71.19 47.994 70.794 48.126C70.41 48.258 70.092 48.414 69.84 48.594C69.66 48.462 69.504 48.3 69.372 48.108C69.252 47.916 69.192 47.694 69.192 47.442C69.192 47.082 69.33 46.782 69.606 46.542C69.882 46.302 70.272 46.116 70.776 45.984C71.292 45.852 71.88 45.786 72.54 45.786ZM82.5456 52.014L86.9376 46.146C87.1296 46.086 87.3576 46.038 87.6216 46.002C87.8856 45.954 88.1196 45.93 88.3236 45.93C88.6356 45.93 88.9356 45.972 89.2236 46.056C89.5116 46.14 89.7456 46.29 89.9256 46.506C90.1056 46.722 90.1956 47.028 90.1956 47.424V52.572H91.7076C91.7676 52.68 91.8276 52.83 91.8876 53.022C91.9596 53.214 91.9956 53.418 91.9956 53.634C91.9956 54.018 91.9056 54.3 91.7256 54.48C91.5456 54.648 91.3176 54.732 91.0416 54.732H90.1956V57C90.0876 57.012 89.9136 57.036 89.6736 57.072C89.4456 57.12 89.2296 57.144 89.0256 57.144C88.5696 57.144 88.2156 57.078 87.9636 56.946C87.7116 56.814 87.5856 56.508 87.5856 56.028V54.732H83.1036C82.8636 54.612 82.6536 54.426 82.4736 54.174C82.3056 53.922 82.2216 53.616 82.2216 53.256C82.2216 53.052 82.2456 52.836 82.2936 52.608C82.3416 52.38 82.4256 52.182 82.5456 52.014ZM87.7116 52.572L87.7296 48.63H87.6756L85.0116 52.572H87.7116ZM100.282 46.056L99.8323 47.676L99.6163 50.286C99.8443 50.214 100.09 50.148 100.354 50.088C100.618 50.028 100.936 49.998 101.308 49.998C102.124 49.998 102.802 50.154 103.342 50.466C103.882 50.766 104.29 51.186 104.566 51.726C104.854 52.254 104.998 52.86 104.998 53.544C104.998 54.216 104.842 54.834 104.53 55.398C104.218 55.962 103.738 56.418 103.09 56.766C102.442 57.102 101.614 57.27 100.606 57.27C99.8863 57.27 99.2503 57.192 98.6983 57.036C98.1583 56.892 97.7323 56.682 97.4203 56.406C97.1203 56.13 96.9703 55.8 96.9703 55.416C96.9703 55.116 97.0603 54.858 97.2403 54.642C97.4203 54.426 97.6123 54.27 97.8163 54.174C98.1403 54.414 98.5063 54.636 98.9143 54.84C99.3223 55.044 99.8323 55.146 100.444 55.146C101.068 55.146 101.53 54.996 101.83 54.696C102.142 54.384 102.298 54.006 102.298 53.562C102.298 53.13 102.154 52.776 101.866 52.5C101.578 52.224 101.152 52.086 100.588 52.086C100.24 52.086 99.9403 52.134 99.6883 52.23C99.4363 52.314 99.1723 52.422 98.8963 52.554C98.3683 52.53 97.9483 52.386 97.6363 52.122C97.3363 51.858 97.1863 51.462 97.1863 50.934C97.1863 50.85 97.1863 50.766 97.1863 50.682C97.1863 50.598 97.1923 50.484 97.2043 50.34L97.4383 47.532C97.4743 47.076 97.6183 46.716 97.8703 46.452C98.1223 46.188 98.4763 46.056 98.9323 46.056H100.282ZM99.1483 48.216V46.056H104.188C104.26 46.164 104.326 46.308 104.386 46.488C104.446 46.668 104.476 46.872 104.476 47.1C104.476 47.484 104.392 47.766 104.224 47.946C104.056 48.126 103.822 48.216 103.522 48.216H99.1483ZM118.183 47.28C118.183 47.496 118.129 47.712 118.021 47.928C117.925 48.132 117.799 48.288 117.643 48.396C117.343 48.252 117.019 48.138 116.671 48.054C116.323 47.97 115.987 47.928 115.663 47.928C114.895 47.928 114.283 48.156 113.827 48.612C113.383 49.056 113.101 49.716 112.981 50.592C113.221 50.412 113.551 50.238 113.971 50.07C114.403 49.902 114.865 49.818 115.357 49.818C116.449 49.818 117.325 50.136 117.985 50.772C118.645 51.396 118.975 52.296 118.975 53.472C118.975 54.168 118.813 54.804 118.489 55.38C118.165 55.956 117.697 56.418 117.085 56.766C116.473 57.102 115.711 57.27 114.799 57.27C113.899 57.27 113.113 57.066 112.441 56.658C111.769 56.25 111.247 55.644 110.875 54.84C110.515 54.024 110.335 53.022 110.335 51.834C110.335 50.802 110.461 49.908 110.713 49.152C110.965 48.384 111.319 47.754 111.775 47.262C112.231 46.77 112.759 46.404 113.359 46.164C113.971 45.924 114.637 45.804 115.357 45.804C115.933 45.804 116.431 45.858 116.851 45.966C117.283 46.074 117.613 46.236 117.841 46.452C118.069 46.668 118.183 46.944 118.183 47.28ZM114.817 55.146C115.285 55.146 115.645 54.996 115.897 54.696C116.161 54.384 116.293 53.976 116.293 53.472C116.293 52.968 116.155 52.578 115.879 52.302C115.615 52.026 115.255 51.888 114.799 51.888C114.463 51.888 114.139 51.96 113.827 52.104C113.515 52.236 113.269 52.416 113.089 52.644L113.107 52.95C113.107 53.682 113.263 54.234 113.575 54.606C113.899 54.966 114.313 55.146 114.817 55.146ZM124.809 46.056H131.127C131.307 46.176 131.469 46.338 131.613 46.542C131.757 46.746 131.829 47.004 131.829 47.316C131.829 47.484 131.811 47.658 131.775 47.838C131.739 48.018 131.679 48.198 131.595 48.378L127.671 57.108C127.527 57.12 127.389 57.126 127.257 57.126C127.125 57.126 126.999 57.126 126.879 57.126C126.423 57.126 126.045 57.036 125.745 56.856C125.445 56.664 125.295 56.358 125.295 55.938C125.295 55.71 125.349 55.47 125.457 55.218C125.577 54.954 125.721 54.648 125.889 54.3L128.859 48.216H124.143C124.083 48.108 124.017 47.958 123.945 47.766C123.885 47.574 123.855 47.376 123.855 47.172C123.855 46.776 123.945 46.494 124.125 46.326C124.305 46.146 124.533 46.056 124.809 46.056ZM139.707 50.898L140.859 50.556C141.459 50.424 141.915 50.238 142.227 49.998C142.551 49.758 142.713 49.428 142.713 49.008C142.713 48.624 142.575 48.33 142.299 48.126C142.035 47.91 141.663 47.802 141.183 47.802C140.727 47.802 140.367 47.916 140.103 48.144C139.839 48.36 139.707 48.654 139.707 49.026C139.707 49.326 139.785 49.578 139.941 49.782C140.097 49.974 140.313 50.124 140.589 50.232C140.877 50.34 141.195 50.418 141.543 50.466L143.109 51.06C143.517 51.192 143.913 51.372 144.297 51.6C144.693 51.828 145.011 52.14 145.251 52.536C145.503 52.92 145.629 53.418 145.629 54.03C145.629 54.714 145.443 55.302 145.071 55.794C144.699 56.286 144.183 56.664 143.523 56.928C142.863 57.18 142.083 57.306 141.183 57.306C140.307 57.306 139.539 57.174 138.879 56.91C138.219 56.646 137.703 56.268 137.331 55.776C136.971 55.284 136.791 54.696 136.791 54.012C136.791 53.388 136.935 52.866 137.223 52.446C137.511 52.014 137.877 51.672 138.321 51.42C138.765 51.156 139.227 50.982 139.707 50.898ZM143.217 51.474L141.651 52.032C140.907 52.14 140.355 52.362 139.995 52.698C139.635 53.034 139.455 53.424 139.455 53.868C139.455 54.3 139.611 54.642 139.923 54.894C140.235 55.134 140.655 55.254 141.183 55.254C141.711 55.254 142.137 55.14 142.461 54.912C142.797 54.672 142.965 54.324 142.965 53.868C142.965 53.364 142.725 52.956 142.245 52.644C141.777 52.332 141.123 52.152 140.283 52.104L139.491 51.582C138.747 51.39 138.153 51.072 137.709 50.628C137.277 50.172 137.061 49.596 137.061 48.9C137.061 48.252 137.235 47.694 137.583 47.226C137.931 46.758 138.411 46.398 139.023 46.146C139.647 45.894 140.367 45.768 141.183 45.768C142.479 45.768 143.493 46.05 144.225 46.614C144.969 47.166 145.341 47.922 145.341 48.882C145.341 49.59 145.137 50.154 144.729 50.574C144.321 50.982 143.817 51.282 143.217 51.474ZM151.511 55.794C151.511 55.566 151.565 55.35 151.673 55.146C151.781 54.93 151.907 54.768 152.051 54.66C152.351 54.804 152.681 54.924 153.041 55.02C153.401 55.104 153.755 55.146 154.103 55.146C154.655 55.146 155.135 55.044 155.543 54.84C155.951 54.636 156.269 54.33 156.497 53.922C156.737 53.514 156.851 53.022 156.839 52.446C156.695 52.566 156.509 52.686 156.281 52.806C156.053 52.914 155.801 53.004 155.525 53.076C155.249 53.148 154.937 53.184 154.589 53.184C153.881 53.184 153.245 53.052 152.681 52.788C152.129 52.524 151.691 52.128 151.367 51.6C151.043 51.072 150.881 50.412 150.881 49.62C150.881 48.9 151.043 48.258 151.367 47.694C151.691 47.118 152.165 46.662 152.789 46.326C153.413 45.978 154.163 45.804 155.039 45.804C155.963 45.804 156.755 46.014 157.415 46.434C158.087 46.842 158.603 47.454 158.963 48.27C159.335 49.074 159.521 50.064 159.521 51.24C159.521 52.608 159.305 53.736 158.873 54.624C158.453 55.512 157.865 56.178 157.109 56.622C156.353 57.054 155.477 57.27 154.481 57.27C153.593 57.27 152.873 57.144 152.321 56.892C151.781 56.64 151.511 56.274 151.511 55.794ZM155.183 51.132C155.495 51.132 155.795 51.06 156.083 50.916C156.383 50.772 156.611 50.592 156.767 50.376V50.25C156.767 49.506 156.617 48.936 156.317 48.54C156.029 48.132 155.597 47.928 155.021 47.928C154.565 47.928 154.199 48.078 153.923 48.378C153.659 48.666 153.527 49.056 153.527 49.548C153.527 50.064 153.683 50.46 153.995 50.736C154.319 51 154.715 51.132 155.183 51.132ZM169.778 54.246H167.096V48.612L165.188 49.296C165.008 49.188 164.834 49.038 164.666 48.846C164.51 48.654 164.432 48.39 164.432 48.054C164.432 47.418 164.816 46.974 165.584 46.722L167.726 45.93H168.32C168.764 45.93 169.118 46.062 169.382 46.326C169.646 46.59 169.778 46.944 169.778 47.388V54.246ZM167.096 52.248H169.778V56.982C169.658 57.018 169.49 57.054 169.274 57.09C169.058 57.126 168.824 57.144 168.572 57.144C168.068 57.144 167.696 57.054 167.456 56.874C167.216 56.694 167.096 56.364 167.096 55.884V52.248ZM176.38 47.532C176.38 47.16 176.518 46.848 176.794 46.596C177.07 46.332 177.448 46.134 177.928 46.002C178.408 45.87 178.966 45.804 179.602 45.804C180.502 45.804 181.258 45.948 181.87 46.236C182.494 46.512 182.962 46.902 183.274 47.406C183.598 47.898 183.76 48.462 183.76 49.098C183.76 49.734 183.58 50.358 183.22 50.97C182.86 51.57 182.302 52.188 181.546 52.824L179.044 54.912H183.616C183.676 55.008 183.736 55.152 183.796 55.344C183.856 55.524 183.886 55.722 183.886 55.938C183.886 56.31 183.802 56.58 183.634 56.748C183.466 56.916 183.244 57 182.968 57H176.686C176.458 56.844 176.278 56.64 176.146 56.388C176.026 56.136 175.966 55.854 175.966 55.542C175.966 55.182 176.038 54.882 176.182 54.642C176.338 54.39 176.506 54.18 176.686 54.012L179.35 51.654C179.998 51.09 180.442 50.628 180.682 50.268C180.922 49.908 181.042 49.566 181.042 49.242C181.042 48.846 180.892 48.534 180.592 48.306C180.304 48.066 179.884 47.946 179.332 47.946C178.84 47.946 178.396 48.03 178 48.198C177.616 48.354 177.298 48.516 177.046 48.684C176.866 48.564 176.71 48.408 176.578 48.216C176.446 48.024 176.38 47.796 176.38 47.532ZM192.774 45.786C194.094 45.786 195.114 46.068 195.834 46.632C196.554 47.184 196.914 47.94 196.914 48.9C196.914 49.308 196.836 49.674 196.68 49.998C196.524 50.31 196.326 50.574 196.086 50.79C195.846 51.006 195.588 51.174 195.312 51.294C195.648 51.402 195.954 51.57 196.23 51.798C196.518 52.026 196.746 52.32 196.914 52.68C197.094 53.028 197.184 53.46 197.184 53.976C197.184 54.66 196.998 55.254 196.626 55.758C196.254 56.25 195.738 56.628 195.078 56.892C194.43 57.144 193.674 57.27 192.81 57.27C192.03 57.27 191.364 57.192 190.812 57.036C190.272 56.892 189.858 56.688 189.57 56.424C189.282 56.148 189.138 55.848 189.138 55.524C189.138 55.236 189.204 54.984 189.336 54.768C189.48 54.552 189.654 54.39 189.858 54.282C190.122 54.462 190.458 54.648 190.866 54.84C191.286 55.032 191.826 55.128 192.486 55.128C193.134 55.128 193.632 55.002 193.98 54.75C194.328 54.498 194.502 54.162 194.502 53.742C194.502 53.334 194.358 53.016 194.07 52.788C193.782 52.56 193.314 52.446 192.666 52.446H191.028C190.944 52.326 190.872 52.182 190.812 52.014C190.764 51.834 190.74 51.63 190.74 51.402C190.74 51.162 190.764 50.952 190.812 50.772C190.872 50.592 190.944 50.448 191.028 50.34H192.63C193.182 50.34 193.584 50.238 193.836 50.034C194.088 49.83 194.214 49.536 194.214 49.152C194.214 48.78 194.058 48.486 193.746 48.27C193.434 48.042 192.978 47.928 192.378 47.928C191.874 47.928 191.424 47.994 191.028 48.126C190.644 48.258 190.326 48.414 190.074 48.594C189.894 48.462 189.738 48.3 189.606 48.108C189.486 47.916 189.426 47.694 189.426 47.442C189.426 47.082 189.564 46.782 189.84 46.542C190.116 46.302 190.506 46.116 191.01 45.984C191.526 45.852 192.114 45.786 192.774 45.786ZM202.78 52.014L207.172 46.146C207.364 46.086 207.592 46.038 207.856 46.002C208.12 45.954 208.354 45.93 208.558 45.93C208.87 45.93 209.17 45.972 209.458 46.056C209.746 46.14 209.98 46.29 210.16 46.506C210.34 46.722 210.43 47.028 210.43 47.424V52.572H211.942C212.002 52.68 212.062 52.83 212.122 53.022C212.194 53.214 212.23 53.418 212.23 53.634C212.23 54.018 212.14 54.3 211.96 54.48C211.78 54.648 211.552 54.732 211.276 54.732H210.43V57C210.322 57.012 210.148 57.036 209.908 57.072C209.68 57.12 209.464 57.144 209.26 57.144C208.804 57.144 208.45 57.078 208.198 56.946C207.946 56.814 207.82 56.508 207.82 56.028V54.732H203.338C203.098 54.612 202.888 54.426 202.708 54.174C202.54 53.922 202.456 53.616 202.456 53.256C202.456 53.052 202.48 52.836 202.528 52.608C202.576 52.38 202.66 52.182 202.78 52.014ZM207.946 52.572L207.964 48.63H207.91L205.246 52.572H207.946Z" fill="white"/>
</g>
<g filter="url(#filter2_d_182_60901)">
<path d="M49.0107 81.9785V75.0469H50.8906V81.9785C50.8906 82.6393 50.7471 83.2067 50.46 83.6807C50.1729 84.1501 49.7809 84.5101 49.2842 84.7607C48.7874 85.0114 48.2269 85.1367 47.6025 85.1367C46.96 85.1367 46.3903 85.0296 45.8936 84.8154C45.3968 84.5967 45.0072 84.264 44.7246 83.8174C44.4466 83.3708 44.3076 82.8034 44.3076 82.1152H46.1943C46.1943 82.4889 46.2513 82.7897 46.3652 83.0176C46.4792 83.2454 46.641 83.4095 46.8506 83.5098C47.0648 83.61 47.3154 83.6602 47.6025 83.6602C47.8805 83.6602 48.1243 83.5964 48.334 83.4688C48.5482 83.3366 48.7145 83.1452 48.833 82.8945C48.9515 82.6439 49.0107 82.3385 49.0107 81.9785ZM52.2988 81.377V81.2334C52.2988 80.6911 52.3763 80.1921 52.5312 79.7363C52.6862 79.276 52.9118 78.8773 53.208 78.54C53.5042 78.2028 53.8665 77.9408 54.2949 77.7539C54.7233 77.5625 55.2109 77.4668 55.7578 77.4668C56.3138 77.4668 56.806 77.5625 57.2344 77.7539C57.6673 77.9408 58.0319 78.2028 58.3281 78.54C58.6243 78.8773 58.8499 79.276 59.0049 79.7363C59.1598 80.1921 59.2373 80.6911 59.2373 81.2334V81.377C59.2373 81.9147 59.1598 82.4137 59.0049 82.874C58.8499 83.3298 58.6243 83.7285 58.3281 84.0703C58.0319 84.4076 57.6696 84.6696 57.2412 84.8564C56.8128 85.0433 56.3229 85.1367 55.7715 85.1367C55.2246 85.1367 54.7347 85.0433 54.3018 84.8564C53.8688 84.6696 53.5042 84.4076 53.208 84.0703C52.9118 83.7285 52.6862 83.3298 52.5312 82.874C52.3763 82.4137 52.2988 81.9147 52.2988 81.377ZM54.1035 81.2334V81.377C54.1035 81.7005 54.1354 82.0036 54.1992 82.2861C54.263 82.5687 54.361 82.8171 54.4932 83.0312C54.6253 83.2454 54.7962 83.4141 55.0059 83.5371C55.2201 83.6556 55.4753 83.7148 55.7715 83.7148C56.0632 83.7148 56.3138 83.6556 56.5234 83.5371C56.7331 83.4141 56.904 83.2454 57.0361 83.0312C57.1729 82.8171 57.2731 82.5687 57.3369 82.2861C57.4007 82.0036 57.4326 81.7005 57.4326 81.377V81.2334C57.4326 80.9144 57.4007 80.6159 57.3369 80.3379C57.2731 80.0553 57.1729 79.807 57.0361 79.5928C56.904 79.374 56.7308 79.2031 56.5166 79.0801C56.307 78.9525 56.054 78.8887 55.7578 78.8887C55.4661 78.8887 55.2155 78.9525 55.0059 79.0801C54.7962 79.2031 54.6253 79.374 54.4932 79.5928C54.361 79.807 54.263 80.0553 54.1992 80.3379C54.1354 80.6159 54.1035 80.9144 54.1035 81.2334ZM62.3203 74.5V85H60.5088V74.5H62.3203ZM62.0332 81.0352H61.5C61.5 80.5202 61.5684 80.0462 61.7051 79.6133C61.8418 79.1803 62.0355 78.8044 62.2861 78.4854C62.5368 78.1618 62.8353 77.9111 63.1816 77.7334C63.5326 77.5557 63.9199 77.4668 64.3438 77.4668C64.7083 77.4668 65.0387 77.5192 65.335 77.624C65.6357 77.7243 65.8932 77.8861 66.1074 78.1094C66.3216 78.3327 66.4857 78.6243 66.5996 78.9844C66.7181 79.3398 66.7773 79.7728 66.7773 80.2832V85H64.959V80.2695C64.959 79.9277 64.9089 79.6589 64.8086 79.4629C64.7083 79.2624 64.5648 79.1188 64.3779 79.0322C64.1956 78.9456 63.9701 78.9023 63.7012 78.9023C63.4095 78.9023 63.1589 78.9593 62.9492 79.0732C62.7396 79.1826 62.5664 79.3353 62.4297 79.5312C62.2975 79.7272 62.1973 79.9528 62.1289 80.208C62.0651 80.4632 62.0332 80.7389 62.0332 81.0352ZM70.1406 79.1826V85H68.3359V77.6035H70.0312L70.1406 79.1826ZM69.8535 81.0352H69.3203C69.3249 80.4974 69.3978 80.0098 69.5391 79.5723C69.6803 79.1348 69.8786 78.7588 70.1338 78.4443C70.3936 78.1299 70.7012 77.8883 71.0566 77.7197C71.4121 77.5511 71.8086 77.4668 72.2461 77.4668C72.6016 77.4668 72.9229 77.5169 73.21 77.6172C73.4971 77.7174 73.7432 77.877 73.9482 78.0957C74.1579 78.3145 74.3174 78.6016 74.4268 78.957C74.5407 79.3079 74.5977 79.7409 74.5977 80.2559V85H72.7793V80.2422C72.7793 79.9049 72.7292 79.6383 72.6289 79.4424C72.5332 79.2464 72.3919 79.1074 72.2051 79.0254C72.0228 78.9434 71.7972 78.9023 71.5283 78.9023C71.2503 78.9023 71.0065 78.9593 70.7969 79.0732C70.5918 79.1826 70.4186 79.3353 70.2773 79.5312C70.1406 79.7272 70.0358 79.9528 69.9629 80.208C69.89 80.4632 69.8535 80.7389 69.8535 81.0352ZM82.7871 85H80.6406L80.6543 83.5234H82.7871C83.3659 83.5234 83.8512 83.3958 84.2432 83.1406C84.6351 82.8809 84.9313 82.5094 85.1318 82.0264C85.3324 81.5387 85.4326 80.9554 85.4326 80.2764V79.7637C85.4326 79.2396 85.3757 78.777 85.2617 78.376C85.1478 77.9749 84.9792 77.6377 84.7559 77.3643C84.5371 77.0908 84.266 76.8835 83.9424 76.7422C83.6188 76.6009 83.2474 76.5303 82.8281 76.5303H80.5996V75.0469H82.8281C83.4935 75.0469 84.0996 75.1585 84.6465 75.3818C85.1979 75.6051 85.6742 75.9264 86.0752 76.3457C86.4808 76.7604 86.7907 77.2572 87.0049 77.8359C87.2236 78.4147 87.333 79.0618 87.333 79.7773V80.2764C87.333 80.9873 87.2236 81.6344 87.0049 82.2178C86.7907 82.7965 86.4808 83.2933 86.0752 83.708C85.6742 84.1227 85.1956 84.4417 84.6396 84.665C84.0837 84.8883 83.4661 85 82.7871 85ZM81.6934 75.0469V85H79.8135V75.0469H81.6934ZM88.4746 81.377V81.2334C88.4746 80.6911 88.5521 80.1921 88.707 79.7363C88.862 79.276 89.0876 78.8773 89.3838 78.54C89.68 78.2028 90.0423 77.9408 90.4707 77.7539C90.8991 77.5625 91.3867 77.4668 91.9336 77.4668C92.4896 77.4668 92.9818 77.5625 93.4102 77.7539C93.8431 77.9408 94.2077 78.2028 94.5039 78.54C94.8001 78.8773 95.0257 79.276 95.1807 79.7363C95.3356 80.1921 95.4131 80.6911 95.4131 81.2334V81.377C95.4131 81.9147 95.3356 82.4137 95.1807 82.874C95.0257 83.3298 94.8001 83.7285 94.5039 84.0703C94.2077 84.4076 93.8454 84.6696 93.417 84.8564C92.9886 85.0433 92.4987 85.1367 91.9473 85.1367C91.4004 85.1367 90.9105 85.0433 90.4775 84.8564C90.0446 84.6696 89.68 84.4076 89.3838 84.0703C89.0876 83.7285 88.862 83.3298 88.707 82.874C88.5521 82.4137 88.4746 81.9147 88.4746 81.377ZM90.2793 81.2334V81.377C90.2793 81.7005 90.3112 82.0036 90.375 82.2861C90.4388 82.5687 90.5368 82.8171 90.6689 83.0312C90.8011 83.2454 90.972 83.4141 91.1816 83.5371C91.3958 83.6556 91.651 83.7148 91.9473 83.7148C92.2389 83.7148 92.4896 83.6556 92.6992 83.5371C92.9089 83.4141 93.0798 83.2454 93.2119 83.0312C93.3486 82.8171 93.4489 82.5687 93.5127 82.2861C93.5765 82.0036 93.6084 81.7005 93.6084 81.377V81.2334C93.6084 80.9144 93.5765 80.6159 93.5127 80.3379C93.4489 80.0553 93.3486 79.807 93.2119 79.5928C93.0798 79.374 92.9066 79.2031 92.6924 79.0801C92.4827 78.9525 92.2298 78.8887 91.9336 78.8887C91.6419 78.8887 91.3913 78.9525 91.1816 79.0801C90.972 79.2031 90.8011 79.374 90.6689 79.5928C90.5368 79.807 90.4388 80.0553 90.375 80.3379C90.3112 80.6159 90.2793 80.9144 90.2793 81.2334ZM100.048 85.1367C99.4873 85.1367 98.9837 85.0456 98.5371 84.8633C98.0905 84.681 97.71 84.4281 97.3955 84.1045C97.0856 83.7764 96.8464 83.3958 96.6777 82.9629C96.5137 82.5254 96.4316 82.056 96.4316 81.5547V81.2812C96.4316 80.7116 96.5137 80.1943 96.6777 79.7295C96.8418 79.2601 97.0742 78.8568 97.375 78.5195C97.6758 78.1823 98.0358 77.9225 98.4551 77.7402C98.8743 77.5579 99.3369 77.4668 99.8428 77.4668C100.367 77.4668 100.829 77.5557 101.23 77.7334C101.632 77.9066 101.966 78.1527 102.235 78.4717C102.504 78.7907 102.707 79.1735 102.844 79.6201C102.98 80.0622 103.049 80.5521 103.049 81.0898V81.8486H97.252V80.6045H101.271V80.4678C101.262 80.1807 101.208 79.9186 101.107 79.6816C101.007 79.4401 100.852 79.2487 100.643 79.1074C100.433 78.9616 100.162 78.8887 99.8291 78.8887C99.5602 78.8887 99.3255 78.9479 99.125 79.0664C98.929 79.1803 98.765 79.3444 98.6328 79.5586C98.5052 79.7682 98.4095 80.0189 98.3457 80.3105C98.2819 80.6022 98.25 80.9258 98.25 81.2812V81.5547C98.25 81.8646 98.291 82.1517 98.373 82.416C98.4596 82.6803 98.585 82.9105 98.749 83.1064C98.9176 83.2979 99.1182 83.4482 99.3506 83.5576C99.5876 83.6624 99.8564 83.7148 100.157 83.7148C100.535 83.7148 100.877 83.6419 101.183 83.4961C101.493 83.3457 101.761 83.1247 101.989 82.833L102.898 83.7764C102.743 84.0042 102.534 84.223 102.27 84.4326C102.01 84.6423 101.695 84.8132 101.326 84.9453C100.957 85.0729 100.531 85.1367 100.048 85.1367Z" fill="white"/>
</g>
<g filter="url(#filter3_d_182_60901)">
<path d="M48.1367 104.654H45.8574V103.734H48.1367C48.5781 103.734 48.9355 103.664 49.209 103.523C49.4824 103.383 49.6816 103.188 49.8066 102.938C49.9355 102.688 50 102.402 50 102.082C50 101.789 49.9355 101.514 49.8066 101.256C49.6816 100.998 49.4824 100.791 49.209 100.635C48.9355 100.475 48.5781 100.395 48.1367 100.395H46.1211V108H44.9902V99.4688H48.1367C48.7812 99.4688 49.3262 99.5801 49.7715 99.8027C50.2168 100.025 50.5547 100.334 50.7852 100.729C51.0156 101.119 51.1309 101.566 51.1309 102.07C51.1309 102.617 51.0156 103.084 50.7852 103.471C50.5547 103.857 50.2168 104.152 49.7715 104.355C49.3262 104.555 48.7812 104.654 48.1367 104.654ZM55.7129 99.4688V108H54.5996V99.4688H55.7129ZM58.4551 99.4688V100.395H51.8633V99.4688H58.4551ZM58.2969 107.426C58.2969 107.242 58.3535 107.088 58.4668 106.963C58.584 106.834 58.752 106.77 58.9707 106.77C59.1895 106.77 59.3555 106.834 59.4688 106.963C59.5859 107.088 59.6445 107.242 59.6445 107.426C59.6445 107.605 59.5859 107.758 59.4688 107.883C59.3555 108.008 59.1895 108.07 58.9707 108.07C58.752 108.07 58.584 108.008 58.4668 107.883C58.3535 107.758 58.2969 107.605 58.2969 107.426ZM65.7148 99.4688V108H64.584V99.4688H65.7148ZM69.2891 103.307V104.232H65.4688V103.307H69.2891ZM69.8691 99.4688V100.395H65.4688V99.4688H69.8691ZM72.2305 101.66V108H71.1406V101.66H72.2305ZM71.0586 99.9785C71.0586 99.8027 71.1113 99.6543 71.2168 99.5332C71.3262 99.4121 71.4863 99.3516 71.6973 99.3516C71.9043 99.3516 72.0625 99.4121 72.1719 99.5332C72.2852 99.6543 72.3418 99.8027 72.3418 99.9785C72.3418 100.146 72.2852 100.291 72.1719 100.412C72.0625 100.529 71.9043 100.588 71.6973 100.588C71.4863 100.588 71.3262 100.529 71.2168 100.412C71.1113 100.291 71.0586 100.146 71.0586 99.9785ZM76.625 101.66V102.492H73.1973V101.66H76.625ZM74.3574 100.119H75.4414V106.43C75.4414 106.645 75.4746 106.807 75.541 106.916C75.6074 107.025 75.6934 107.098 75.7988 107.133C75.9043 107.168 76.0176 107.186 76.1387 107.186C76.2285 107.186 76.3223 107.178 76.4199 107.162C76.5215 107.143 76.5977 107.127 76.6484 107.115L76.6543 108C76.5684 108.027 76.4551 108.053 76.3145 108.076C76.1777 108.104 76.0117 108.117 75.8164 108.117C75.5508 108.117 75.3066 108.064 75.084 107.959C74.8613 107.854 74.6836 107.678 74.5508 107.432C74.4219 107.182 74.3574 106.846 74.3574 106.424V100.119ZM81.2188 100.225L78.3945 108H77.2402L80.4922 99.4688H81.2363L81.2188 100.225ZM83.5859 108L80.7559 100.225L80.7383 99.4688H81.4824L84.7461 108H83.5859ZM83.4395 104.842V105.768H78.6465V104.842H83.4395ZM85.7539 101.66H86.8438V108.756C86.8438 109.143 86.7812 109.471 86.6562 109.74C86.5352 110.01 86.3516 110.213 86.1055 110.35C85.8633 110.49 85.5566 110.561 85.1855 110.561C85.0879 110.561 84.9746 110.551 84.8457 110.531C84.7129 110.512 84.6016 110.488 84.5117 110.461L84.5176 109.588C84.5918 109.604 84.6758 109.615 84.7695 109.623C84.8633 109.635 84.9453 109.641 85.0156 109.641C85.1758 109.641 85.3105 109.611 85.4199 109.553C85.5293 109.494 85.6113 109.4 85.666 109.271C85.7246 109.143 85.7539 108.971 85.7539 108.756V101.66ZM85.6426 99.9785C85.6426 99.8027 85.6973 99.6543 85.8066 99.5332C85.916 99.4121 86.0742 99.3516 86.2812 99.3516C86.4922 99.3516 86.6523 99.4121 86.7617 99.5332C86.8711 99.6543 86.9258 99.8027 86.9258 99.9785C86.9258 100.146 86.8711 100.291 86.7617 100.412C86.6523 100.529 86.4922 100.588 86.2812 100.588C86.0742 100.588 85.916 100.529 85.8066 100.412C85.6973 100.291 85.6426 100.146 85.6426 99.9785ZM92.334 106.916V103.652C92.334 103.402 92.2832 103.186 92.1816 103.002C92.084 102.814 91.9355 102.67 91.7363 102.568C91.5371 102.467 91.291 102.416 90.998 102.416C90.7246 102.416 90.4844 102.463 90.2773 102.557C90.0742 102.65 89.9141 102.773 89.7969 102.926C89.6836 103.078 89.627 103.242 89.627 103.418H88.543C88.543 103.191 88.6016 102.967 88.7188 102.744C88.8359 102.521 89.0039 102.32 89.2227 102.141C89.4453 101.957 89.7109 101.812 90.0195 101.707C90.332 101.598 90.6797 101.543 91.0625 101.543C91.5234 101.543 91.9297 101.621 92.2812 101.777C92.6367 101.934 92.9141 102.17 93.1133 102.486C93.3164 102.799 93.418 103.191 93.418 103.664V106.617C93.418 106.828 93.4355 107.053 93.4707 107.291C93.5098 107.529 93.5664 107.734 93.6406 107.906V108H92.5098C92.4551 107.875 92.4121 107.709 92.3809 107.502C92.3496 107.291 92.334 107.096 92.334 106.916ZM92.5215 104.156L92.5332 104.918H91.4375C91.1289 104.918 90.8535 104.943 90.6113 104.994C90.3691 105.041 90.166 105.113 90.002 105.211C89.8379 105.309 89.7129 105.432 89.627 105.58C89.541 105.725 89.498 105.895 89.498 106.09C89.498 106.289 89.543 106.471 89.6328 106.635C89.7227 106.799 89.8574 106.93 90.0371 107.027C90.2207 107.121 90.4453 107.168 90.7109 107.168C91.043 107.168 91.3359 107.098 91.5898 106.957C91.8438 106.816 92.0449 106.645 92.1934 106.441C92.3457 106.238 92.4277 106.041 92.4395 105.85L92.9023 106.371C92.875 106.535 92.8008 106.717 92.6797 106.916C92.5586 107.115 92.3965 107.307 92.1934 107.49C91.9941 107.67 91.7559 107.82 91.4785 107.941C91.2051 108.059 90.8965 108.117 90.5527 108.117C90.123 108.117 89.7461 108.033 89.4219 107.865C89.1016 107.697 88.8516 107.473 88.6719 107.191C88.4961 106.906 88.4082 106.588 88.4082 106.236C88.4082 105.896 88.4746 105.598 88.6074 105.34C88.7402 105.078 88.9316 104.861 89.1816 104.689C89.4316 104.514 89.7324 104.381 90.084 104.291C90.4355 104.201 90.8281 104.156 91.2617 104.156H92.5215ZM100.572 108H98.791L98.8027 107.08H100.572C101.182 107.08 101.689 106.953 102.096 106.699C102.502 106.441 102.807 106.082 103.01 105.621C103.217 105.156 103.32 104.613 103.32 103.992V103.471C103.32 102.982 103.262 102.549 103.145 102.17C103.027 101.787 102.855 101.465 102.629 101.203C102.402 100.938 102.125 100.736 101.797 100.6C101.473 100.463 101.1 100.395 100.678 100.395H98.7559V99.4688H100.678C101.236 99.4688 101.746 99.5625 102.207 99.75C102.668 99.9336 103.064 100.201 103.396 100.553C103.732 100.9 103.99 101.322 104.17 101.818C104.35 102.311 104.439 102.865 104.439 103.482V103.992C104.439 104.609 104.35 105.166 104.17 105.662C103.99 106.154 103.73 106.574 103.391 106.922C103.055 107.27 102.648 107.537 102.172 107.725C101.699 107.908 101.166 108 100.572 108ZM99.3945 99.4688V108H98.2637V99.4688H99.3945ZM107.152 101.66V108H106.062V101.66H107.152ZM105.98 99.9785C105.98 99.8027 106.033 99.6543 106.139 99.5332C106.248 99.4121 106.408 99.3516 106.619 99.3516C106.826 99.3516 106.984 99.4121 107.094 99.5332C107.207 99.6543 107.264 99.8027 107.264 99.9785C107.264 100.146 107.207 100.291 107.094 100.412C106.984 100.529 106.826 100.588 106.619 100.588C106.408 100.588 106.248 100.529 106.139 100.412C106.033 100.291 105.98 100.146 105.98 99.9785ZM113 101.66H113.984V107.865C113.984 108.424 113.871 108.9 113.645 109.295C113.418 109.689 113.102 109.988 112.695 110.191C112.293 110.398 111.828 110.502 111.301 110.502C111.082 110.502 110.824 110.467 110.527 110.396C110.234 110.33 109.945 110.215 109.66 110.051C109.379 109.891 109.143 109.674 108.951 109.4L109.52 108.756C109.785 109.076 110.062 109.299 110.352 109.424C110.645 109.549 110.934 109.611 111.219 109.611C111.562 109.611 111.859 109.547 112.109 109.418C112.359 109.289 112.553 109.098 112.689 108.844C112.83 108.594 112.9 108.285 112.9 107.918V103.055L113 101.66ZM108.635 104.9V104.777C108.635 104.293 108.691 103.854 108.805 103.459C108.922 103.061 109.088 102.719 109.303 102.434C109.521 102.148 109.785 101.93 110.094 101.777C110.402 101.621 110.75 101.543 111.137 101.543C111.535 101.543 111.883 101.613 112.18 101.754C112.48 101.891 112.734 102.092 112.941 102.357C113.152 102.619 113.318 102.936 113.439 103.307C113.561 103.678 113.645 104.098 113.691 104.566V105.105C113.648 105.57 113.564 105.988 113.439 106.359C113.318 106.73 113.152 107.047 112.941 107.309C112.734 107.57 112.48 107.771 112.18 107.912C111.879 108.049 111.527 108.117 111.125 108.117C110.746 108.117 110.402 108.037 110.094 107.877C109.789 107.717 109.527 107.492 109.309 107.203C109.09 106.914 108.922 106.574 108.805 106.184C108.691 105.789 108.635 105.361 108.635 104.9ZM109.719 104.777V104.9C109.719 105.217 109.75 105.514 109.812 105.791C109.879 106.068 109.979 106.312 110.111 106.523C110.248 106.734 110.422 106.9 110.633 107.021C110.844 107.139 111.096 107.197 111.389 107.197C111.748 107.197 112.045 107.121 112.279 106.969C112.514 106.816 112.699 106.615 112.836 106.365C112.977 106.115 113.086 105.844 113.164 105.551V104.139C113.121 103.924 113.055 103.717 112.965 103.518C112.879 103.314 112.766 103.135 112.625 102.979C112.488 102.818 112.318 102.691 112.115 102.598C111.912 102.504 111.674 102.457 111.4 102.457C111.104 102.457 110.848 102.52 110.633 102.645C110.422 102.766 110.248 102.934 110.111 103.148C109.979 103.359 109.879 103.605 109.812 103.887C109.75 104.164 109.719 104.461 109.719 104.777ZM116.809 101.66V108H115.719V101.66H116.809ZM115.637 99.9785C115.637 99.8027 115.689 99.6543 115.795 99.5332C115.904 99.4121 116.064 99.3516 116.275 99.3516C116.482 99.3516 116.641 99.4121 116.75 99.5332C116.863 99.6543 116.92 99.8027 116.92 99.9785C116.92 100.146 116.863 100.291 116.75 100.412C116.641 100.529 116.482 100.588 116.275 100.588C116.064 100.588 115.904 100.529 115.795 100.412C115.689 100.291 115.637 100.146 115.637 99.9785ZM121.203 101.66V102.492H117.775V101.66H121.203ZM118.936 100.119H120.02V106.43C120.02 106.645 120.053 106.807 120.119 106.916C120.186 107.025 120.271 107.098 120.377 107.133C120.482 107.168 120.596 107.186 120.717 107.186C120.807 107.186 120.9 107.178 120.998 107.162C121.1 107.143 121.176 107.127 121.227 107.115L121.232 108C121.146 108.027 121.033 108.053 120.893 108.076C120.756 108.104 120.59 108.117 120.395 108.117C120.129 108.117 119.885 108.064 119.662 107.959C119.439 107.854 119.262 107.678 119.129 107.432C119 107.182 118.936 106.846 118.936 106.424V100.119ZM126.213 106.916V103.652C126.213 103.402 126.162 103.186 126.061 103.002C125.963 102.814 125.814 102.67 125.615 102.568C125.416 102.467 125.17 102.416 124.877 102.416C124.604 102.416 124.363 102.463 124.156 102.557C123.953 102.65 123.793 102.773 123.676 102.926C123.562 103.078 123.506 103.242 123.506 103.418H122.422C122.422 103.191 122.48 102.967 122.598 102.744C122.715 102.521 122.883 102.32 123.102 102.141C123.324 101.957 123.59 101.812 123.898 101.707C124.211 101.598 124.559 101.543 124.941 101.543C125.402 101.543 125.809 101.621 126.16 101.777C126.516 101.934 126.793 102.17 126.992 102.486C127.195 102.799 127.297 103.191 127.297 103.664V106.617C127.297 106.828 127.314 107.053 127.35 107.291C127.389 107.529 127.445 107.734 127.52 107.906V108H126.389C126.334 107.875 126.291 107.709 126.26 107.502C126.229 107.291 126.213 107.096 126.213 106.916ZM126.4 104.156L126.412 104.918H125.316C125.008 104.918 124.732 104.943 124.49 104.994C124.248 105.041 124.045 105.113 123.881 105.211C123.717 105.309 123.592 105.432 123.506 105.58C123.42 105.725 123.377 105.895 123.377 106.09C123.377 106.289 123.422 106.471 123.512 106.635C123.602 106.799 123.736 106.93 123.916 107.027C124.1 107.121 124.324 107.168 124.59 107.168C124.922 107.168 125.215 107.098 125.469 106.957C125.723 106.816 125.924 106.645 126.072 106.441C126.225 106.238 126.307 106.041 126.318 105.85L126.781 106.371C126.754 106.535 126.68 106.717 126.559 106.916C126.438 107.115 126.275 107.307 126.072 107.49C125.873 107.67 125.635 107.82 125.357 107.941C125.084 108.059 124.775 108.117 124.432 108.117C124.002 108.117 123.625 108.033 123.301 107.865C122.98 107.697 122.73 107.473 122.551 107.191C122.375 106.906 122.287 106.588 122.287 106.236C122.287 105.896 122.354 105.598 122.486 105.34C122.619 105.078 122.811 104.861 123.061 104.689C123.311 104.514 123.611 104.381 123.963 104.291C124.314 104.201 124.707 104.156 125.141 104.156H126.4ZM130.18 99V108H129.09V99H130.18ZM141.623 99.4688V108H140.486L136.191 101.42V108H135.061V99.4688H136.191L140.504 106.066V99.4688H141.623ZM147.342 106.535V101.66H148.432V108H147.395L147.342 106.535ZM147.547 105.199L147.998 105.188C147.998 105.609 147.953 106 147.863 106.359C147.777 106.715 147.637 107.023 147.441 107.285C147.246 107.547 146.99 107.752 146.674 107.9C146.357 108.045 145.973 108.117 145.52 108.117C145.211 108.117 144.928 108.072 144.67 107.982C144.416 107.893 144.197 107.754 144.014 107.566C143.83 107.379 143.688 107.135 143.586 106.834C143.488 106.533 143.439 106.172 143.439 105.75V101.66H144.523V105.762C144.523 106.047 144.555 106.283 144.617 106.471C144.684 106.654 144.771 106.801 144.881 106.91C144.994 107.016 145.119 107.09 145.256 107.133C145.396 107.176 145.541 107.197 145.689 107.197C146.15 107.197 146.516 107.109 146.785 106.934C147.055 106.754 147.248 106.514 147.365 106.213C147.486 105.908 147.547 105.57 147.547 105.199ZM153.775 106.318C153.775 106.162 153.74 106.018 153.67 105.885C153.604 105.748 153.465 105.625 153.254 105.516C153.047 105.402 152.734 105.305 152.316 105.223C151.965 105.148 151.646 105.061 151.361 104.959C151.08 104.857 150.84 104.734 150.641 104.59C150.445 104.445 150.295 104.275 150.189 104.08C150.084 103.885 150.031 103.656 150.031 103.395C150.031 103.145 150.086 102.908 150.195 102.686C150.309 102.463 150.467 102.266 150.67 102.094C150.877 101.922 151.125 101.787 151.414 101.689C151.703 101.592 152.025 101.543 152.381 101.543C152.889 101.543 153.322 101.633 153.682 101.812C154.041 101.992 154.316 102.232 154.508 102.533C154.699 102.83 154.795 103.16 154.795 103.523H153.711C153.711 103.348 153.658 103.178 153.553 103.014C153.451 102.846 153.301 102.707 153.102 102.598C152.906 102.488 152.666 102.434 152.381 102.434C152.08 102.434 151.836 102.48 151.648 102.574C151.465 102.664 151.33 102.779 151.244 102.92C151.162 103.061 151.121 103.209 151.121 103.365C151.121 103.482 151.141 103.588 151.18 103.682C151.223 103.771 151.297 103.855 151.402 103.934C151.508 104.008 151.656 104.078 151.848 104.145C152.039 104.211 152.283 104.277 152.58 104.344C153.1 104.461 153.527 104.602 153.863 104.766C154.199 104.93 154.449 105.131 154.613 105.369C154.777 105.607 154.859 105.896 154.859 106.236C154.859 106.514 154.801 106.768 154.684 106.998C154.57 107.229 154.404 107.428 154.186 107.596C153.971 107.76 153.713 107.889 153.412 107.982C153.115 108.072 152.781 108.117 152.41 108.117C151.852 108.117 151.379 108.018 150.992 107.818C150.605 107.619 150.312 107.361 150.113 107.045C149.914 106.729 149.814 106.395 149.814 106.043H150.904C150.92 106.34 151.006 106.576 151.162 106.752C151.318 106.924 151.51 107.047 151.736 107.121C151.963 107.191 152.188 107.227 152.41 107.227C152.707 107.227 152.955 107.188 153.154 107.109C153.357 107.031 153.512 106.924 153.617 106.787C153.723 106.65 153.775 106.494 153.775 106.318ZM160.021 106.916V103.652C160.021 103.402 159.971 103.186 159.869 103.002C159.771 102.814 159.623 102.67 159.424 102.568C159.225 102.467 158.979 102.416 158.686 102.416C158.412 102.416 158.172 102.463 157.965 102.557C157.762 102.65 157.602 102.773 157.484 102.926C157.371 103.078 157.314 103.242 157.314 103.418H156.23C156.23 103.191 156.289 102.967 156.406 102.744C156.523 102.521 156.691 102.32 156.91 102.141C157.133 101.957 157.398 101.812 157.707 101.707C158.02 101.598 158.367 101.543 158.75 101.543C159.211 101.543 159.617 101.621 159.969 101.777C160.324 101.934 160.602 102.17 160.801 102.486C161.004 102.799 161.105 103.191 161.105 103.664V106.617C161.105 106.828 161.123 107.053 161.158 107.291C161.197 107.529 161.254 107.734 161.328 107.906V108H160.197C160.143 107.875 160.1 107.709 160.068 107.502C160.037 107.291 160.021 107.096 160.021 106.916ZM160.209 104.156L160.221 104.918H159.125C158.816 104.918 158.541 104.943 158.299 104.994C158.057 105.041 157.854 105.113 157.689 105.211C157.525 105.309 157.4 105.432 157.314 105.58C157.229 105.725 157.186 105.895 157.186 106.09C157.186 106.289 157.23 106.471 157.32 106.635C157.41 106.799 157.545 106.93 157.725 107.027C157.908 107.121 158.133 107.168 158.398 107.168C158.73 107.168 159.023 107.098 159.277 106.957C159.531 106.816 159.732 106.645 159.881 106.441C160.033 106.238 160.115 106.041 160.127 105.85L160.59 106.371C160.562 106.535 160.488 106.717 160.367 106.916C160.246 107.115 160.084 107.307 159.881 107.49C159.682 107.67 159.443 107.82 159.166 107.941C158.893 108.059 158.584 108.117 158.24 108.117C157.811 108.117 157.434 108.033 157.109 107.865C156.789 107.697 156.539 107.473 156.359 107.191C156.184 106.906 156.096 106.588 156.096 106.236C156.096 105.896 156.162 105.598 156.295 105.34C156.428 105.078 156.619 104.861 156.869 104.689C157.119 104.514 157.42 104.381 157.771 104.291C158.123 104.201 158.516 104.156 158.949 104.156H160.209ZM163.895 103.014V108H162.811V101.66H163.836L163.895 103.014ZM163.637 104.59L163.186 104.572C163.189 104.139 163.254 103.738 163.379 103.371C163.504 103 163.68 102.678 163.906 102.404C164.133 102.131 164.402 101.92 164.715 101.771C165.031 101.619 165.381 101.543 165.764 101.543C166.076 101.543 166.357 101.586 166.607 101.672C166.857 101.754 167.07 101.887 167.246 102.07C167.426 102.254 167.562 102.492 167.656 102.785C167.75 103.074 167.797 103.428 167.797 103.846V108H166.707V103.834C166.707 103.502 166.658 103.236 166.561 103.037C166.463 102.834 166.32 102.688 166.133 102.598C165.945 102.504 165.715 102.457 165.441 102.457C165.172 102.457 164.926 102.514 164.703 102.627C164.484 102.74 164.295 102.896 164.135 103.096C163.979 103.295 163.855 103.523 163.766 103.781C163.68 104.035 163.637 104.305 163.637 104.59ZM172.098 101.66V102.492H168.67V101.66H172.098ZM169.83 100.119H170.914V106.43C170.914 106.645 170.947 106.807 171.014 106.916C171.08 107.025 171.166 107.098 171.271 107.133C171.377 107.168 171.49 107.186 171.611 107.186C171.701 107.186 171.795 107.178 171.893 107.162C171.994 107.143 172.07 107.127 172.121 107.115L172.127 108C172.041 108.027 171.928 108.053 171.787 108.076C171.65 108.104 171.484 108.117 171.289 108.117C171.023 108.117 170.779 108.064 170.557 107.959C170.334 107.854 170.156 107.678 170.023 107.432C169.895 107.182 169.83 106.846 169.83 106.424V100.119ZM177.107 106.916V103.652C177.107 103.402 177.057 103.186 176.955 103.002C176.857 102.814 176.709 102.67 176.51 102.568C176.311 102.467 176.064 102.416 175.771 102.416C175.498 102.416 175.258 102.463 175.051 102.557C174.848 102.65 174.688 102.773 174.57 102.926C174.457 103.078 174.4 103.242 174.4 103.418H173.316C173.316 103.191 173.375 102.967 173.492 102.744C173.609 102.521 173.777 102.32 173.996 102.141C174.219 101.957 174.484 101.812 174.793 101.707C175.105 101.598 175.453 101.543 175.836 101.543C176.297 101.543 176.703 101.621 177.055 101.777C177.41 101.934 177.688 102.17 177.887 102.486C178.09 102.799 178.191 103.191 178.191 103.664V106.617C178.191 106.828 178.209 107.053 178.244 107.291C178.283 107.529 178.34 107.734 178.414 107.906V108H177.283C177.229 107.875 177.186 107.709 177.154 107.502C177.123 107.291 177.107 107.096 177.107 106.916ZM177.295 104.156L177.307 104.918H176.211C175.902 104.918 175.627 104.943 175.385 104.994C175.143 105.041 174.939 105.113 174.775 105.211C174.611 105.309 174.486 105.432 174.4 105.58C174.314 105.725 174.271 105.895 174.271 106.09C174.271 106.289 174.316 106.471 174.406 106.635C174.496 106.799 174.631 106.93 174.811 107.027C174.994 107.121 175.219 107.168 175.484 107.168C175.816 107.168 176.109 107.098 176.363 106.957C176.617 106.816 176.818 106.645 176.967 106.441C177.119 106.238 177.201 106.041 177.213 105.85L177.676 106.371C177.648 106.535 177.574 106.717 177.453 106.916C177.332 107.115 177.17 107.307 176.967 107.49C176.768 107.67 176.529 107.82 176.252 107.941C175.979 108.059 175.67 108.117 175.326 108.117C174.896 108.117 174.52 108.033 174.195 107.865C173.875 107.697 173.625 107.473 173.445 107.191C173.27 106.906 173.182 106.588 173.182 106.236C173.182 105.896 173.248 105.598 173.381 105.34C173.514 105.078 173.705 104.861 173.955 104.689C174.205 104.514 174.506 104.381 174.857 104.291C175.209 104.201 175.602 104.156 176.035 104.156H177.295ZM180.98 102.656V108H179.896V101.66H180.951L180.98 102.656ZM182.961 101.625L182.955 102.633C182.865 102.613 182.779 102.602 182.697 102.598C182.619 102.59 182.529 102.586 182.428 102.586C182.178 102.586 181.957 102.625 181.766 102.703C181.574 102.781 181.412 102.891 181.279 103.031C181.146 103.172 181.041 103.34 180.963 103.535C180.889 103.727 180.84 103.938 180.816 104.168L180.512 104.344C180.512 103.961 180.549 103.602 180.623 103.266C180.701 102.93 180.82 102.633 180.98 102.375C181.141 102.113 181.344 101.91 181.59 101.766C181.84 101.617 182.137 101.543 182.48 101.543C182.559 101.543 182.648 101.553 182.75 101.572C182.852 101.588 182.922 101.605 182.961 101.625ZM187.467 106.916V103.652C187.467 103.402 187.416 103.186 187.314 103.002C187.217 102.814 187.068 102.67 186.869 102.568C186.67 102.467 186.424 102.416 186.131 102.416C185.857 102.416 185.617 102.463 185.41 102.557C185.207 102.65 185.047 102.773 184.93 102.926C184.816 103.078 184.76 103.242 184.76 103.418H183.676C183.676 103.191 183.734 102.967 183.852 102.744C183.969 102.521 184.137 102.32 184.355 102.141C184.578 101.957 184.844 101.812 185.152 101.707C185.465 101.598 185.812 101.543 186.195 101.543C186.656 101.543 187.062 101.621 187.414 101.777C187.77 101.934 188.047 102.17 188.246 102.486C188.449 102.799 188.551 103.191 188.551 103.664V106.617C188.551 106.828 188.568 107.053 188.604 107.291C188.643 107.529 188.699 107.734 188.773 107.906V108H187.643C187.588 107.875 187.545 107.709 187.514 107.502C187.482 107.291 187.467 107.096 187.467 106.916ZM187.654 104.156L187.666 104.918H186.57C186.262 104.918 185.986 104.943 185.744 104.994C185.502 105.041 185.299 105.113 185.135 105.211C184.971 105.309 184.846 105.432 184.76 105.58C184.674 105.725 184.631 105.895 184.631 106.09C184.631 106.289 184.676 106.471 184.766 106.635C184.855 106.799 184.99 106.93 185.17 107.027C185.354 107.121 185.578 107.168 185.844 107.168C186.176 107.168 186.469 107.098 186.723 106.957C186.977 106.816 187.178 106.645 187.326 106.441C187.479 106.238 187.561 106.041 187.572 105.85L188.035 106.371C188.008 106.535 187.934 106.717 187.812 106.916C187.691 107.115 187.529 107.307 187.326 107.49C187.127 107.67 186.889 107.82 186.611 107.941C186.338 108.059 186.029 108.117 185.686 108.117C185.256 108.117 184.879 108.033 184.555 107.865C184.234 107.697 183.984 107.473 183.805 107.191C183.629 106.906 183.541 106.588 183.541 106.236C183.541 105.896 183.607 105.598 183.74 105.34C183.873 105.078 184.064 104.861 184.314 104.689C184.564 104.514 184.865 104.381 185.217 104.291C185.568 104.201 185.961 104.156 186.395 104.156H187.654Z" fill="white"/>
</g>
<path d="M214.83 5C209.066 60.6233 161.951 104 104.683 104C70.712 104 40.3137 88.7366 20 64.7077V100.708C43.2924 119.052 72.7064 130 104.683 130C176.352 130 235.148 75.0051 241 5H214.83Z" fill="white" fill-opacity="0.15"/>
<path d="M421.41 38C375.015 41.3383 338.41 80.1304 338.41 127.494C338.41 128.332 338.387 145.167 338.41 146H355.458C355.458 146 355.458 128.333 355.458 127.494C355.458 89.5743 384.441 58.4414 421.41 55.1461V38Z" fill="white" fill-opacity="0.15"/>
</g>
<path d="M20 136H380V154C380 159.523 375.523 164 370 164H30C24.4772 164 20 159.523 20 154V136Z" fill="white"/>
<g clip-path="url(#clip1_182_60901)">
<path d="M153 144.667H141C140.264 144.667 139.667 145.264 139.667 146V154C139.667 154.736 140.264 155.333 141 155.333H153C153.737 155.333 154.334 154.736 154.334 154V146C154.334 145.264 153.737 144.667 153 144.667Z" stroke="#509EE3" stroke-width="1.67" stroke-linecap="round" stroke-linejoin="round"/>
<path d="M139.667 148.667H154.334" stroke="#509EE3" stroke-width="1.67" stroke-linecap="round" stroke-linejoin="round"/>
</g>
<path d="M167.377 145.469V154H165.918V145.469H167.377ZM170.055 145.469V146.641H163.264V145.469H170.055ZM173.828 152.729V149.705C173.828 149.479 173.787 149.283 173.705 149.119C173.623 148.955 173.498 148.828 173.33 148.738C173.166 148.648 172.959 148.604 172.709 148.604C172.479 148.604 172.279 148.643 172.111 148.721C171.943 148.799 171.812 148.904 171.719 149.037C171.625 149.17 171.578 149.32 171.578 149.488H170.172C170.172 149.238 170.232 148.996 170.354 148.762C170.475 148.527 170.65 148.318 170.881 148.135C171.111 147.951 171.387 147.807 171.707 147.701C172.027 147.596 172.387 147.543 172.785 147.543C173.262 147.543 173.684 147.623 174.051 147.783C174.422 147.943 174.713 148.186 174.924 148.51C175.139 148.83 175.246 149.232 175.246 149.717V152.535C175.246 152.824 175.266 153.084 175.305 153.314C175.348 153.541 175.408 153.738 175.486 153.906V154H174.039C173.973 153.848 173.92 153.654 173.881 153.42C173.846 153.182 173.828 152.951 173.828 152.729ZM174.033 150.145L174.045 151.018H173.031C172.77 151.018 172.539 151.043 172.34 151.094C172.141 151.141 171.975 151.211 171.842 151.305C171.709 151.398 171.609 151.512 171.543 151.645C171.477 151.777 171.443 151.928 171.443 152.096C171.443 152.264 171.482 152.418 171.561 152.559C171.639 152.695 171.752 152.803 171.9 152.881C172.053 152.959 172.236 152.998 172.451 152.998C172.74 152.998 172.992 152.939 173.207 152.822C173.426 152.701 173.598 152.555 173.723 152.383C173.848 152.207 173.914 152.041 173.922 151.885L174.379 152.512C174.332 152.672 174.252 152.844 174.139 153.027C174.025 153.211 173.877 153.387 173.693 153.555C173.514 153.719 173.297 153.854 173.043 153.959C172.793 154.064 172.504 154.117 172.176 154.117C171.762 154.117 171.393 154.035 171.068 153.871C170.744 153.703 170.49 153.479 170.307 153.197C170.123 152.912 170.031 152.59 170.031 152.23C170.031 151.895 170.094 151.598 170.219 151.34C170.348 151.078 170.535 150.859 170.781 150.684C171.031 150.508 171.336 150.375 171.695 150.285C172.055 150.191 172.465 150.145 172.926 150.145H174.033ZM178.135 148.949V154H176.723V147.66H178.053L178.135 148.949ZM177.906 150.596L177.426 150.59C177.426 150.152 177.48 149.748 177.59 149.377C177.699 149.006 177.859 148.684 178.07 148.41C178.281 148.133 178.543 147.92 178.855 147.771C179.172 147.619 179.537 147.543 179.951 147.543C180.24 147.543 180.504 147.586 180.742 147.672C180.984 147.754 181.193 147.885 181.369 148.064C181.549 148.244 181.686 148.475 181.779 148.756C181.877 149.037 181.926 149.377 181.926 149.775V154H180.514V149.898C180.514 149.59 180.467 149.348 180.373 149.172C180.283 148.996 180.152 148.871 179.98 148.797C179.812 148.719 179.611 148.68 179.377 148.68C179.111 148.68 178.885 148.73 178.697 148.832C178.514 148.934 178.363 149.072 178.246 149.248C178.129 149.424 178.043 149.627 177.988 149.857C177.934 150.088 177.906 150.334 177.906 150.596ZM181.838 150.221L181.176 150.367C181.176 149.984 181.229 149.623 181.334 149.283C181.443 148.939 181.602 148.639 181.809 148.381C182.02 148.119 182.279 147.914 182.588 147.766C182.896 147.617 183.25 147.543 183.648 147.543C183.973 147.543 184.262 147.588 184.516 147.678C184.773 147.764 184.992 147.9 185.172 148.088C185.352 148.275 185.488 148.52 185.582 148.82C185.676 149.117 185.723 149.477 185.723 149.898V154H184.305V149.893C184.305 149.572 184.258 149.324 184.164 149.148C184.074 148.973 183.945 148.852 183.777 148.785C183.609 148.715 183.408 148.68 183.174 148.68C182.955 148.68 182.762 148.721 182.594 148.803C182.43 148.881 182.291 148.992 182.178 149.137C182.064 149.277 181.979 149.439 181.92 149.623C181.865 149.807 181.838 150.006 181.838 150.221ZM188.594 148.879V156.438H187.182V147.66H188.482L188.594 148.879ZM192.725 150.771V150.895C192.725 151.355 192.67 151.783 192.561 152.178C192.455 152.568 192.297 152.91 192.086 153.203C191.879 153.492 191.623 153.717 191.318 153.877C191.014 154.037 190.662 154.117 190.264 154.117C189.869 154.117 189.523 154.045 189.227 153.9C188.934 153.752 188.686 153.543 188.482 153.273C188.279 153.004 188.115 152.688 187.99 152.324C187.869 151.957 187.783 151.555 187.732 151.117V150.643C187.783 150.178 187.869 149.756 187.99 149.377C188.115 148.998 188.279 148.672 188.482 148.398C188.686 148.125 188.934 147.914 189.227 147.766C189.52 147.617 189.861 147.543 190.252 147.543C190.65 147.543 191.004 147.621 191.312 147.777C191.621 147.93 191.881 148.148 192.092 148.434C192.303 148.715 192.461 149.055 192.566 149.453C192.672 149.848 192.725 150.287 192.725 150.771ZM191.312 150.895V150.771C191.312 150.479 191.285 150.207 191.23 149.957C191.176 149.703 191.09 149.48 190.973 149.289C190.855 149.098 190.705 148.949 190.521 148.844C190.342 148.734 190.125 148.68 189.871 148.68C189.621 148.68 189.406 148.723 189.227 148.809C189.047 148.891 188.896 149.006 188.775 149.154C188.654 149.303 188.561 149.477 188.494 149.676C188.428 149.871 188.381 150.084 188.354 150.314V151.451C188.4 151.732 188.48 151.99 188.594 152.225C188.707 152.459 188.867 152.646 189.074 152.787C189.285 152.924 189.555 152.992 189.883 152.992C190.137 152.992 190.354 152.938 190.533 152.828C190.713 152.719 190.859 152.568 190.973 152.377C191.09 152.182 191.176 151.957 191.23 151.703C191.285 151.449 191.312 151.18 191.312 150.895ZM195.438 147.66V154H194.02V147.66H195.438ZM193.926 145.996C193.926 145.781 193.996 145.604 194.137 145.463C194.281 145.318 194.48 145.246 194.734 145.246C194.984 145.246 195.182 145.318 195.326 145.463C195.471 145.604 195.543 145.781 195.543 145.996C195.543 146.207 195.471 146.383 195.326 146.523C195.182 146.664 194.984 146.734 194.734 146.734C194.48 146.734 194.281 146.664 194.137 146.523C193.996 146.383 193.926 146.207 193.926 145.996ZM198.496 145V154H197.078V145H198.496ZM201.467 145V154H200.049V145H201.467ZM205.404 147.66L202.645 150.719L201.133 152.266L200.764 151.07L201.906 149.658L203.699 147.66H205.404ZM204.004 154L201.947 151.023L202.838 150.033L205.639 154H204.004ZM209.875 152.729V149.705C209.875 149.479 209.834 149.283 209.752 149.119C209.67 148.955 209.545 148.828 209.377 148.738C209.213 148.648 209.006 148.604 208.756 148.604C208.525 148.604 208.326 148.643 208.158 148.721C207.99 148.799 207.859 148.904 207.766 149.037C207.672 149.17 207.625 149.32 207.625 149.488H206.219C206.219 149.238 206.279 148.996 206.4 148.762C206.521 148.527 206.697 148.318 206.928 148.135C207.158 147.951 207.434 147.807 207.754 147.701C208.074 147.596 208.434 147.543 208.832 147.543C209.309 147.543 209.73 147.623 210.098 147.783C210.469 147.943 210.76 148.186 210.971 148.51C211.186 148.83 211.293 149.232 211.293 149.717V152.535C211.293 152.824 211.312 153.084 211.352 153.314C211.395 153.541 211.455 153.738 211.533 153.906V154H210.086C210.02 153.848 209.967 153.654 209.928 153.42C209.893 153.182 209.875 152.951 209.875 152.729ZM210.08 150.145L210.092 151.018H209.078C208.816 151.018 208.586 151.043 208.387 151.094C208.188 151.141 208.021 151.211 207.889 151.305C207.756 151.398 207.656 151.512 207.59 151.645C207.523 151.777 207.49 151.928 207.49 152.096C207.49 152.264 207.529 152.418 207.607 152.559C207.686 152.695 207.799 152.803 207.947 152.881C208.1 152.959 208.283 152.998 208.498 152.998C208.787 152.998 209.039 152.939 209.254 152.822C209.473 152.701 209.645 152.555 209.77 152.383C209.895 152.207 209.961 152.041 209.969 151.885L210.426 152.512C210.379 152.672 210.299 152.844 210.186 153.027C210.072 153.211 209.924 153.387 209.74 153.555C209.561 153.719 209.344 153.854 209.09 153.959C208.84 154.064 208.551 154.117 208.223 154.117C207.809 154.117 207.439 154.035 207.115 153.871C206.791 153.703 206.537 153.479 206.354 153.197C206.17 152.912 206.078 152.59 206.078 152.23C206.078 151.895 206.141 151.598 206.266 151.34C206.395 151.078 206.582 150.859 206.828 150.684C207.078 150.508 207.383 150.375 207.742 150.285C208.102 150.191 208.512 150.145 208.973 150.145H210.08ZM214.17 149.014V154H212.758V147.66H214.088L214.17 149.014ZM213.918 150.596L213.461 150.59C213.465 150.141 213.527 149.729 213.648 149.354C213.773 148.979 213.945 148.656 214.164 148.387C214.387 148.117 214.652 147.91 214.961 147.766C215.27 147.617 215.613 147.543 215.992 147.543C216.297 147.543 216.572 147.586 216.818 147.672C217.068 147.754 217.281 147.889 217.457 148.076C217.637 148.264 217.773 148.508 217.867 148.809C217.961 149.105 218.008 149.471 218.008 149.904V154H216.59V149.898C216.59 149.594 216.545 149.354 216.455 149.178C216.369 148.998 216.242 148.871 216.074 148.797C215.91 148.719 215.705 148.68 215.459 148.68C215.217 148.68 215 148.73 214.809 148.832C214.617 148.934 214.455 149.072 214.322 149.248C214.193 149.424 214.094 149.627 214.023 149.857C213.953 150.088 213.918 150.334 213.918 150.596ZM224.049 145.469V154H222.578V145.469H224.049ZM227.529 149.201V150.367H223.674V149.201H227.529ZM228.016 145.469V146.641H223.674V145.469H228.016ZM230.559 147.66V154H229.141V147.66H230.559ZM229.047 145.996C229.047 145.781 229.117 145.604 229.258 145.463C229.402 145.318 229.602 145.246 229.855 145.246C230.105 145.246 230.303 145.318 230.447 145.463C230.592 145.604 230.664 145.781 230.664 145.996C230.664 146.207 230.592 146.383 230.447 146.523C230.303 146.664 230.105 146.734 229.855 146.734C229.602 146.734 229.402 146.664 229.258 146.523C229.117 146.383 229.047 146.207 229.047 145.996ZM235.012 147.66V148.691H231.438V147.66H235.012ZM232.469 146.107H233.881V152.248C233.881 152.443 233.908 152.594 233.963 152.699C234.021 152.801 234.102 152.869 234.203 152.904C234.305 152.939 234.424 152.957 234.561 152.957C234.658 152.957 234.752 152.951 234.842 152.939C234.932 152.928 235.004 152.916 235.059 152.904L235.064 153.982C234.947 154.018 234.811 154.049 234.654 154.076C234.502 154.104 234.326 154.117 234.127 154.117C233.803 154.117 233.516 154.061 233.266 153.947C233.016 153.83 232.82 153.641 232.68 153.379C232.539 153.117 232.469 152.77 232.469 152.336V146.107ZM241.281 151.223H242.746C242.699 151.781 242.543 152.279 242.277 152.717C242.012 153.15 241.639 153.492 241.158 153.742C240.678 153.992 240.094 154.117 239.406 154.117C238.879 154.117 238.404 154.023 237.982 153.836C237.561 153.645 237.199 153.375 236.898 153.027C236.598 152.676 236.367 152.252 236.207 151.756C236.051 151.26 235.973 150.705 235.973 150.092V149.383C235.973 148.77 236.053 148.215 236.213 147.719C236.377 147.223 236.611 146.799 236.916 146.447C237.221 146.092 237.586 145.82 238.012 145.633C238.441 145.445 238.924 145.352 239.459 145.352C240.139 145.352 240.713 145.477 241.182 145.727C241.65 145.977 242.014 146.322 242.271 146.764C242.533 147.205 242.693 147.711 242.752 148.281H241.287C241.248 147.914 241.162 147.6 241.029 147.338C240.9 147.076 240.709 146.877 240.455 146.74C240.201 146.6 239.869 146.529 239.459 146.529C239.123 146.529 238.83 146.592 238.58 146.717C238.33 146.842 238.121 147.025 237.953 147.268C237.785 147.51 237.658 147.809 237.572 148.164C237.49 148.516 237.449 148.918 237.449 149.371V150.092C237.449 150.521 237.486 150.912 237.561 151.264C237.639 151.611 237.756 151.91 237.912 152.16C238.072 152.41 238.275 152.604 238.521 152.74C238.768 152.877 239.062 152.945 239.406 152.945C239.824 152.945 240.162 152.879 240.42 152.746C240.682 152.613 240.879 152.42 241.012 152.166C241.148 151.908 241.238 151.594 241.281 151.223ZM247.516 152.729V149.705C247.516 149.479 247.475 149.283 247.393 149.119C247.311 148.955 247.186 148.828 247.018 148.738C246.854 148.648 246.646 148.604 246.396 148.604C246.166 148.604 245.967 148.643 245.799 148.721C245.631 148.799 245.5 148.904 245.406 149.037C245.312 149.17 245.266 149.32 245.266 149.488H243.859C243.859 149.238 243.92 148.996 244.041 148.762C244.162 148.527 244.338 148.318 244.568 148.135C244.799 147.951 245.074 147.807 245.395 147.701C245.715 147.596 246.074 147.543 246.473 147.543C246.949 147.543 247.371 147.623 247.738 147.783C248.109 147.943 248.4 148.186 248.611 148.51C248.826 148.83 248.934 149.232 248.934 149.717V152.535C248.934 152.824 248.953 153.084 248.992 153.314C249.035 153.541 249.096 153.738 249.174 153.906V154H247.727C247.66 153.848 247.607 153.654 247.568 153.42C247.533 153.182 247.516 152.951 247.516 152.729ZM247.721 150.145L247.732 151.018H246.719C246.457 151.018 246.227 151.043 246.027 151.094C245.828 151.141 245.662 151.211 245.529 151.305C245.396 151.398 245.297 151.512 245.23 151.645C245.164 151.777 245.131 151.928 245.131 152.096C245.131 152.264 245.17 152.418 245.248 152.559C245.326 152.695 245.439 152.803 245.588 152.881C245.74 152.959 245.924 152.998 246.139 152.998C246.428 152.998 246.68 152.939 246.895 152.822C247.113 152.701 247.285 152.555 247.41 152.383C247.535 152.207 247.602 152.041 247.609 151.885L248.066 152.512C248.02 152.672 247.939 152.844 247.826 153.027C247.713 153.211 247.564 153.387 247.381 153.555C247.201 153.719 246.984 153.854 246.73 153.959C246.48 154.064 246.191 154.117 245.863 154.117C245.449 154.117 245.08 154.035 244.756 153.871C244.432 153.703 244.178 153.479 243.994 153.197C243.811 152.912 243.719 152.59 243.719 152.23C243.719 151.895 243.781 151.598 243.906 151.34C244.035 151.078 244.223 150.859 244.469 150.684C244.719 150.508 245.023 150.375 245.383 150.285C245.742 150.191 246.152 150.145 246.613 150.145H247.721ZM251.828 148.867V154H250.416V147.66H251.764L251.828 148.867ZM253.768 147.619L253.756 148.932C253.67 148.916 253.576 148.904 253.475 148.896C253.377 148.889 253.279 148.885 253.182 148.885C252.939 148.885 252.727 148.92 252.543 148.99C252.359 149.057 252.205 149.154 252.08 149.283C251.959 149.408 251.865 149.561 251.799 149.74C251.732 149.92 251.693 150.121 251.682 150.344L251.359 150.367C251.359 149.969 251.398 149.6 251.477 149.26C251.555 148.92 251.672 148.621 251.828 148.363C251.988 148.105 252.188 147.904 252.426 147.76C252.668 147.615 252.947 147.543 253.264 147.543C253.35 147.543 253.441 147.551 253.539 147.566C253.641 147.582 253.717 147.6 253.768 147.619ZM258.402 152.688V145H259.82V154H258.537L258.402 152.688ZM254.277 150.9V150.777C254.277 150.297 254.334 149.859 254.447 149.465C254.561 149.066 254.725 148.725 254.939 148.439C255.154 148.15 255.416 147.93 255.725 147.777C256.033 147.621 256.381 147.543 256.768 147.543C257.15 147.543 257.486 147.617 257.775 147.766C258.064 147.914 258.311 148.127 258.514 148.404C258.717 148.678 258.879 149.006 259 149.389C259.121 149.768 259.207 150.189 259.258 150.654V151.047C259.207 151.5 259.121 151.914 259 152.289C258.879 152.664 258.717 152.988 258.514 153.262C258.311 153.535 258.062 153.746 257.77 153.895C257.48 154.043 257.143 154.117 256.756 154.117C256.373 154.117 256.027 154.037 255.719 153.877C255.414 153.717 255.154 153.492 254.939 153.203C254.725 152.914 254.561 152.574 254.447 152.184C254.334 151.789 254.277 151.361 254.277 150.9ZM255.689 150.777V150.9C255.689 151.189 255.715 151.459 255.766 151.709C255.82 151.959 255.904 152.18 256.018 152.371C256.131 152.559 256.277 152.707 256.457 152.816C256.641 152.922 256.859 152.975 257.113 152.975C257.434 152.975 257.697 152.904 257.904 152.764C258.111 152.623 258.273 152.434 258.391 152.195C258.512 151.953 258.594 151.684 258.637 151.387V150.326C258.613 150.096 258.564 149.881 258.49 149.682C258.42 149.482 258.324 149.309 258.203 149.16C258.082 149.008 257.932 148.891 257.752 148.809C257.576 148.723 257.367 148.68 257.125 148.68C256.867 148.68 256.648 148.734 256.469 148.844C256.289 148.953 256.141 149.104 256.023 149.295C255.91 149.486 255.826 149.709 255.771 149.963C255.717 150.217 255.689 150.488 255.689 150.777Z" fill="#509EE3"/>
</g>
<defs>
<filter id="filter0_dd_182_60901" x="0" y="0" width="400" height="188" filterUnits="userSpaceOnUse" color-interpolation-filters="sRGB">
<feFlood flood-opacity="0" result="BackgroundImageFix"/>
<feColorMatrix in="SourceAlpha" type="matrix" values="0 0 0 0 0 0 0 0 0 0 0 0 0 0 0 0 0 0 127 0" result="hardAlpha"/>
<feOffset dy="4"/>
<feGaussianBlur stdDeviation="10"/>
<feColorMatrix type="matrix" values="0 0 0 0 0 0 0 0 0 0 0 0 0 0 0 0 0 0 0.15 0"/>
<feBlend mode="normal" in2="BackgroundImageFix" result="effect1_dropShadow_182_60901"/>
<feColorMatrix in="SourceAlpha" type="matrix" values="0 0 0 0 0 0 0 0 0 0 0 0 0 0 0 0 0 0 127 0" result="hardAlpha"/>
<feOffset/>
<feGaussianBlur stdDeviation="1.5"/>
<feColorMatrix type="matrix" values="0 0 0 0 0 0 0 0 0 0 0 0 0 0 0 0 0 0 0.1 0"/>
<feBlend mode="normal" in2="effect1_dropShadow_182_60901" result="effect2_dropShadow_182_60901"/>
<feBlend mode="normal" in="SourceGraphic" in2="effect2_dropShadow_182_60901" result="shape"/>
</filter>
<filter id="filter1_d_182_60901" x="36.1982" y="41.768" width="184.032" height="27.538" filterUnits="userSpaceOnUse" color-interpolation-filters="sRGB">
<feFlood flood-opacity="0" result="BackgroundImageFix"/>
<feColorMatrix in="SourceAlpha" type="matrix" values="0 0 0 0 0 0 0 0 0 0 0 0 0 0 0 0 0 0 127 0" result="hardAlpha"/>
<feOffset dy="4"/>
<feGaussianBlur stdDeviation="4"/>
<feColorMatrix type="matrix" values="0 0 0 0 0.0999999 0 0 0 0 0.14 0 0 0 0 0.2 0 0 0 0.15 0"/>
<feBlend mode="normal" in2="BackgroundImageFix" result="effect1_dropShadow_182_60901"/>
<feBlend mode="normal" in="SourceGraphic" in2="effect1_dropShadow_182_60901" result="shape"/>
</filter>
<filter id="filter2_d_182_60901" x="36.3076" y="70.5" width="74.7412" height="26.6367" filterUnits="userSpaceOnUse" color-interpolation-filters="sRGB">
<feFlood flood-opacity="0" result="BackgroundImageFix"/>
<feColorMatrix in="SourceAlpha" type="matrix" values="0 0 0 0 0 0 0 0 0 0 0 0 0 0 0 0 0 0 127 0" result="hardAlpha"/>
<feOffset dy="4"/>
<feGaussianBlur stdDeviation="4"/>
<feColorMatrix type="matrix" values="0 0 0 0 0 0 0 0 0 0 0 0 0 0 0 0 0 0 0.05 0"/>
<feBlend mode="normal" in2="BackgroundImageFix" result="effect1_dropShadow_182_60901"/>
<feBlend mode="normal" in="SourceGraphic" in2="effect1_dropShadow_182_60901" result="shape"/>
</filter>
<filter id="filter3_d_182_60901" x="36.9902" y="95" width="159.783" height="27.5605" filterUnits="userSpaceOnUse" color-interpolation-filters="sRGB">
<feFlood flood-opacity="0" result="BackgroundImageFix"/>
<feColorMatrix in="SourceAlpha" type="matrix" values="0 0 0 0 0 0 0 0 0 0 0 0 0 0 0 0 0 0 127 0" result="hardAlpha"/>
<feOffset dy="4"/>
<feGaussianBlur stdDeviation="4"/>
<feColorMatrix type="matrix" values="0 0 0 0 0 0 0 0 0 0 0 0 0 0 0 0 0 0 0.05 0"/>
<feBlend mode="normal" in2="BackgroundImageFix" result="effect1_dropShadow_182_60901"/>
<feBlend mode="normal" in="SourceGraphic" in2="effect1_dropShadow_182_60901" result="shape"/>
</filter>
<clipPath id="clip0_182_60901">
<path d="M20 26C20 20.4772 24.4772 16 30 16H370C375.523 16 380 20.4772 380 26V136H20V26Z" fill="white"/>
</clipPath>
<clipPath id="clip1_182_60901">
<rect width="16" height="16" fill="white" transform="translate(139 142)"/>
</clipPath>
</defs>
</svg>
